<?xml version="1.0" encoding="UTF-8"?>
<svg version="1.1" xmlns="http://www.w3.org/2000/svg" width="300" height="300">
<path d="M0 0 C8.69100393 6.96617392 14.42405546 17.09050819 16.5390625 28.03515625 C19.30864127 53.43345246 4.8948143 79.18953496 -10.5 98.4609375 C-11.48221491 99.65627452 -12.46902854 100.84785118 -13.4609375 102.03515625 C-13.91436523 102.57962402 -14.36779297 103.1240918 -14.83496094 103.68505859 C-38.46718064 131.62424602 -73.32335989 150.04938664 -109.77050781 153.82421875 C-125.79267398 155.0804031 -141.76243001 154.54443757 -157.4609375 151.03515625 C-158.20746582 150.86886719 -158.95399414 150.70257813 -159.72314453 150.53125 C-181.01156086 145.59215448 -202.88062088 135.51835772 -219.4609375 121.03515625 C-219.7909375 120.04515625 -220.1209375 119.05515625 -220.4609375 118.03515625 C-216.60740378 118.67506787 -213.30895758 119.84226702 -209.7109375 121.34765625 C-189.76597449 129.0136532 -166.82095361 132.15520973 -146.4609375 124.03515625 C-111.07904275 108.18952312 -93.76423306 71.77004451 -77.97265625 38.6796875 C-77.3846096 37.45233887 -77.3846096 37.45233887 -76.78468323 36.20019531 C-74.82475433 32.10902111 -72.8780234 28.01261329 -70.95532227 23.90380859 C-64.44919362 10.16528285 -57.0619145 -1.78784369 -42.3984375 -7.90234375 C-27.62529445 -12.09330632 -12.44489756 -8.44603278 0 0 Z " fill="#0583C1" transform="translate(280.4609375,133.96484375)"/>
<path d="M0 0 C10.91849289 7.5670636 16.40288432 17.98792925 21.8359375 29.71484375 C23.29008738 32.8209825 24.74962626 35.92456836 26.2109375 39.02734375 C26.583396 39.81971436 26.95585449 40.61208496 27.33959961 41.4284668 C31.55708295 50.34103717 36.14846638 59.04227098 40.8359375 67.71484375 C41.2175 68.42801758 41.5990625 69.14119141 41.9921875 69.87597656 C48.82913363 82.61809751 56.42697303 94.51806688 66.4375 105.04296875 C67.8359375 106.71484375 67.8359375 106.71484375 67.8359375 108.71484375 C68.4959375 108.71484375 69.1559375 108.71484375 69.8359375 108.71484375 C70.1659375 110.03484375 70.4959375 111.35484375 70.8359375 112.71484375 C53.10166924 125.80801627 35.86105144 129.91975065 14.00390625 127.24609375 C-9.71942235 122.69121466 -32.30001585 111.01160448 -47.1640625 91.71484375 C-54.02748627 81.5107907 -58.92714548 70.21591116 -63.1640625 58.71484375 C-63.52628906 57.75191406 -63.88851562 56.78898437 -64.26171875 55.796875 C-68.23422503 43.58372777 -67.42532125 29.74364942 -61.98046875 18.20703125 C-56.93024582 8.85052758 -49.06750433 1.62098216 -39.1640625 -2.28515625 C-38.22433594 -2.72988281 -38.22433594 -2.72988281 -37.265625 -3.18359375 C-25.481136 -8.10508532 -10.77641845 -6.3997142 0 0 Z " fill="#53BABF" transform="translate(79.1640625,130.28515625)"/>
<path d="M0 0 C8.45502395 5.91196249 14.33164942 13.99066683 17 24 C18.36271993 36.33269114 17.15256309 47.39569071 9.9375 57.75 C3.05113168 65.97825166 -6.85829595 71.36376801 -17.5078125 72.3125 C-29.48748538 72.69972175 -39.08063405 70.19405487 -48 62 C-56.10867568 53.83488343 -60.00104644 45.16232301 -60.3125 33.625 C-60.11262459 22.81923575 -56.76347254 14.23981979 -49.5 6.25 C-35.77999938 -6.09800056 -16.47648716 -10.12232619 0 0 Z " fill="#53B9BF" transform="translate(82,31)"/>
<path d="M0 0 C9.18508458 6.3790151 14.8945641 14.24295692 17.453125 25.1640625 C19.38152367 36.77049935 16.76532732 46.85943924 10.18359375 56.5546875 C3.92869246 64.57527125 -4.21686031 69.39722414 -14.12890625 71.6796875 C-25.61265492 72.96293422 -35.92720372 70.90959663 -45.12890625 63.6796875 C-47.62890625 61.4296875 -47.62890625 61.4296875 -50.12890625 58.6796875 C-50.87333984 57.86757812 -50.87333984 57.86757812 -51.6328125 57.0390625 C-57.60015552 49.92012697 -60.96216809 40.257553 -60.44921875 30.921875 C-58.80972508 19.44541934 -54.4406161 8.94524882 -45.12890625 1.6796875 C-31.17179064 -7.09052841 -14.40173106 -8.93171577 0 0 Z " fill="#0583C1" transform="translate(270.12890625,31.3203125)"/>
<path d="M0 0 C3.85353372 0.63991162 7.15197992 1.80711077 10.75 3.3125 C30.7475017 10.9986906 52.20285035 13.15126961 73 7 C71.45765937 10.08468127 69.10395722 10.6529997 66 12 C61.23033145 12.98587036 56.47523325 13.29499166 51.625 13.5625 C50.88894531 13.60568359 50.15289062 13.64886719 49.39453125 13.69335938 C47.59651932 13.79843799 45.79828042 13.89962093 44 14 C46.97 14 49.94 14 53 14 C51 17 51 17 48.64453125 17.765625 C43.11060884 18.71211656 38.57326292 19.1374006 33 18 C31.68 18 30.36 18 29 18 C29 18.66 29 19.32 29 20 C23.8032873 18.56670019 19.93811826 16.20992604 15.5625 13.1875 C14.93279297 12.76146484 14.30308594 12.33542969 13.65429688 11.89648438 C12.39286013 11.03953711 11.13578885 10.17612644 9.88330078 9.30615234 C8.59795042 8.41470505 7.30419832 7.53528139 6.00341797 6.66650391 C1.11167542 3.33502627 1.11167542 3.33502627 0 0 Z " fill="#0984C0" transform="translate(60,252)"/>
<path d="M0 0 C0 0.33 0 0.66 0 1 C-2.64 1.33 -5.28 1.66 -8 2 C-8 2.66 -8 3.32 -8 4 C-10.31 4 -12.62 4 -15 4 C-12.88673474 8.70842624 -12.88673474 8.70842624 -9 12 C-7.01332363 12.52677991 -7.01332363 12.52677991 -4.83203125 12.81640625 C-4.02056641 12.94080078 -3.20910156 13.06519531 -2.37304688 13.19335938 C-1.52806641 13.31517578 -0.68308594 13.43699219 0.1875 13.5625 C1.01314453 13.68818359 1.83878906 13.81386719 2.68945312 13.94335938 C5.12447701 14.30986021 7.56139041 14.65825012 10 15 C11.94326172 15.27457031 11.94326172 15.27457031 13.92578125 15.5546875 C18.93352841 16.16581731 23.96243004 16.35057464 29 16.5625 C29.96550781 16.60568359 30.93101562 16.64886719 31.92578125 16.69335938 C34.28374425 16.79841713 36.64179416 16.90056914 39 17 C39 16.34 39 15.68 39 15 C40.60320974 14.80448662 42.20762986 14.61888017 43.8125 14.4375 C44.70582031 14.33308594 45.59914063 14.22867187 46.51953125 14.12109375 C49 14 49 14 52 15 C52.33 13.35 52.66 11.7 53 10 C52.0925 10.04125 51.185 10.0825 50.25 10.125 C47.1217954 10.00468444 45.61385994 9.6085292 43 8 C43.33 7.34 43.66 6.68 44 6 C47.63 6.66 51.26 7.32 55 8 C54.67 9.32 54.34 10.64 54 12 C58.62 11.67 63.24 11.34 68 11 C68 10.34 68 9.68 68 9 C72.29 8.34 76.58 7.68 81 7 C69.96009342 18.03990658 41.60681344 18.27240327 27 18.375 C3.62005027 18.22754055 -17.91074005 12.96999074 -39 3 C-34.47907032 1.54393481 -31.48351204 2.72967159 -27 4 C-27 4.99 -27 5.98 -27 7 C-26.113125 7.12375 -25.22625 7.2475 -24.3125 7.375 C-21.29612498 7.94412736 -18.79673946 8.76614436 -16 10 C-16 9.34 -16 8.68 -16 8 C-16.99 7.67 -17.98 7.34 -19 7 C-19.33 6.01 -19.66 5.02 -20 4 C-18.68 4.33 -17.36 4.66 -16 5 C-15.67 4.01 -15.34 3.02 -15 2 C-10.06208162 -0.34551123 -5.33555495 -0.2134222 0 0 Z " fill="#2C7CA5" transform="translate(128,270)"/>
<path d="M0 0 C0.33 0.66 0.66 1.32 1 2 C0.67 2.99 0.34 3.98 0 5 C0.33 5.33 0.66 5.66 1 6 C1.20988756 7.41091085 1.36831236 8.82965476 1.5 10.25 C1.75269518 12.82586056 2.05043941 15.22193343 2.625 17.75 C3.08076346 20.48458078 2.85414671 22.36638097 2 25 C1.01 25.66 0.02 26.32 -1 27 C-1 28.32 -1 29.64 -1 31 C-0.34 31 0.32 31 1 31 C1 33.31 1 35.62 1 38 C0.01 38.495 0.01 38.495 -1 39 C-0.484375 39.78375 0.03125 40.5675 0.5625 41.375 C1.2740625 42.674375 1.2740625 42.674375 2 44 C1.67 44.66 1.34 45.32 1 46 C-4.96698631 37.76886078 -8.2751337 28.23553264 -7 18 C-5.69514767 11.32445115 -3.68237169 5.71402503 0 0 Z " fill="#0A83C2" transform="translate(217,42)"/>
<path d="M0 0 C4.79281586 3.82840779 9.84335217 8.3425565 11.8125 14.25 C10.8225 14.25 9.8325 14.25 8.8125 14.25 C8.8125 14.91 8.8125 15.57 8.8125 16.25 C7.8225 15.92 6.8325 15.59 5.8125 15.25 C6.1425 13.93 6.4725 12.61 6.8125 11.25 C5.8225 10.92 4.8325 10.59 3.8125 10.25 C3.3175 11.735 3.3175 11.735 2.8125 13.25 C1.8225 13.25 0.8325 13.25 -0.1875 13.25 C-0.1875 11.27 -0.1875 9.29 -0.1875 7.25 C0.4725 7.25 1.1325 7.25 1.8125 7.25 C1.8125 5.93 1.8125 4.61 1.8125 3.25 C1.26078125 2.97414063 0.7090625 2.69828125 0.140625 2.4140625 C-3.96875 0.359375 -8.078125 -1.6953125 -12.1875 -3.75 C-12.1875 -3.09 -12.1875 -2.43 -12.1875 -1.75 C-11.5275 -1.42 -10.8675 -1.09 -10.1875 -0.75 C-15.14538479 -0.04790303 -19.26246701 0.37572183 -24.1875 -0.75 C-26.41917185 -0.38143136 -26.41917185 -0.38143136 -28.1875 0.25 C-28.1875 -1.07 -28.1875 -2.39 -28.1875 -3.75 C-34.1275 -3.255 -34.1275 -3.255 -40.1875 -2.75 C-28.80523225 -11.28670081 -10.94711621 -7.60274105 0 0 Z " fill="#1084C1" transform="translate(272.1875,32.75)"/>
<path d="M0 0 C9.38202201 5.00481792 13.53813904 15.09524916 16.57421875 24.84375 C19.10260584 37.64805894 15.96336605 49.24736641 11 61 C10.34 61.66 9.68 62.32 9 63 C8.97307516 60.70839681 8.95363876 58.41670454 8.9375 56.125 C8.92589844 54.84882813 8.91429687 53.57265625 8.90234375 52.2578125 C9 49 9 49 10 47 C11.485 46.505 11.485 46.505 13 46 C12.83628906 45.48953125 12.67257812 44.9790625 12.50390625 44.453125 C11.83301519 41.18708172 11.9066544 38.0813253 11.9375 34.75 C11.94652344 33.48671875 11.95554687 32.2234375 11.96484375 30.921875 C11.97644531 29.95765625 11.98804688 28.9934375 12 28 C12.66 28 13.32 28 14 28 C13.67 24.7 13.34 21.4 13 18 C12.34 18 11.68 18 11 18 C10.76925781 17.37351563 10.53851563 16.74703125 10.30078125 16.1015625 C8.3765096 10.87772074 8.3765096 10.87772074 4.25 7.4375 C3.5075 7.293125 2.765 7.14875 2 7 C2 5.35 2 3.7 2 2 C1.34 2 0.68 2 0 2 C0 1.34 0 0.68 0 0 Z " fill="#107CB0" transform="translate(280,135)"/>
<path d="M0 0 C4.34831295 6.52246943 4.83199594 14.35984213 4 22 C2.40484807 28.651948 0.21240466 34.58405116 -4 40 C-5.24377393 37.51245214 -5.13306235 35.77344699 -5.125 33 C-5.12757813 32.113125 -5.13015625 31.22625 -5.1328125 30.3125 C-5 28 -5 28 -4 26 C-3.92907158 23.7927077 -3.91584975 21.58332548 -3.9375 19.375 C-3.94652344 18.18648437 -3.95554687 16.99796875 -3.96484375 15.7734375 C-3.97644531 14.85820313 -3.98804688 13.94296875 -4 13 C-2.68 13 -1.36 13 0 13 C0 8.71 0 4.42 0 0 Z " fill="#167FB3" transform="translate(284,48)"/>
<path d="M0 0 C3.85353372 0.63991162 7.15197992 1.80711077 10.75 3.3125 C18.63493733 6.42664287 26.72652418 8.22640459 35 10 C35 10.33 35 10.66 35 11 C31.37 11 27.74 11 24 11 C23.67 12.32 23.34 13.64 23 15 C25.31 15.66 27.62 16.32 30 17 C29.67 17.99 29.34 18.98 29 20 C23.8032873 18.56670019 19.93811826 16.20992604 15.5625 13.1875 C14.93279297 12.76146484 14.30308594 12.33542969 13.65429688 11.89648438 C12.39286013 11.03953711 11.13578885 10.17612644 9.88330078 9.30615234 C8.59795042 8.41470505 7.30419832 7.53528139 6.00341797 6.66650391 C1.11167542 3.33502627 1.11167542 3.33502627 0 0 Z " fill="#1784B2" transform="translate(60,252)"/>
<path d="M0 0 C7.32779097 4.65558195 7.32779097 4.65558195 9 8 C8.505 7.731875 8.01 7.46375 7.5 7.1875 C4.66719449 5.84191738 1.78031922 4.86142616 -1.1953125 3.87890625 C-3 3 -3 3 -5 0 C-13.10929046 -2.91964033 -26.11694451 -2.26377312 -33.96875 1.0078125 C-34.6390625 1.33523437 -35.309375 1.66265625 -36 2 C-36.8971875 2.40992188 -37.794375 2.81984375 -38.71875 3.2421875 C-43.65979082 5.23406694 -43.65979082 5.23406694 -47 9 C-48.33333333 9.66666667 -49.66666667 10.33333333 -51 11 C-51.33 11.66 -51.66 12.32 -52 13 C-52.66 13 -53.32 13 -54 13 C-54.12375 13.556875 -54.2475 14.11375 -54.375 14.6875 C-56.22137405 21.51908397 -56.22137405 21.51908397 -59.125 23.3125 C-60.053125 23.6528125 -60.053125 23.6528125 -61 24 C-58.76792536 14.32767656 -51.08370195 7.19956708 -43 2 C-40.06774258 0.44905392 -37.11150515 -0.8542276 -34 -2 C-33.08992188 -2.35707031 -32.17984375 -2.71414062 -31.2421875 -3.08203125 C-21.19819499 -5.92581226 -9.17982832 -4.94414399 0 0 Z " fill="#68AFB1" transform="translate(77,129)"/>
<path d="M0 0 C3 1 3 1 3.9140625 2.63671875 C5.33891226 6.7468623 6.45737985 10.65903883 7 15 C10.0109362 12.9927092 10.63016497 12.16115776 12 9 C12.99 9.33 13.98 9.66 15 10 C13.47050112 13.00635032 11.9241737 16.00374714 10.375 19 C9.94832031 19.83917969 9.52164062 20.67835938 9.08203125 21.54296875 C6.18634128 27.11825242 2.93494009 32.10227361 -1 37 C-1.495 35.515 -1.495 35.515 -2 34 C-0.32676502 31.1252399 1.59499037 28.49237884 3.53125 25.7890625 C5.2549359 23.13142965 5.2549359 23.13142965 4.75390625 20.35546875 C4.50511719 19.57816406 4.25632812 18.80085938 4 18 C3.66055205 16.00102872 3.32578384 14.00124361 3 12 C0.525 13.485 0.525 13.485 -2 15 C-2.33 13.68 -2.66 12.36 -3 11 C-1.68 10.34 -0.36 9.68 1 9 C0.84402344 8.43410156 0.68804687 7.86820313 0.52734375 7.28515625 C0.33269531 6.55167969 0.13804687 5.81820312 -0.0625 5.0625 C-0.35833984 3.96615234 -0.35833984 3.96615234 -0.66015625 2.84765625 C-0.77230469 2.23792969 -0.88445312 1.62820312 -1 1 C-0.67 0.67 -0.34 0.34 0 0 Z " fill="#1182C2" transform="translate(274,191)"/>
<path d="M0 0 C2.97 0 5.94 0 9 0 C9.33 2.31 9.66 4.62 10 7 C12.97 7 15.94 7 19 7 C19.33 7.66 19.66 8.32 20 9 C22.33294775 9.04241723 24.66702567 9.04092937 27 9 C27.33 8.67 27.66 8.34 28 8 C30.70108504 8.090916 33.36930311 8.23740766 36.0625 8.4375 C36.82111328 8.48970703 37.57972656 8.54191406 38.36132812 8.59570312 C40.24121722 8.72575835 42.12065685 8.86228038 44 9 C39.72656439 13.27343561 34.0062393 13.19827335 28.25 13.375 C19.00370011 13.23728915 11.34740989 10.5553587 4 5 C3.21625 4.46375 2.4325 3.9275 1.625 3.375 C1.08875 2.92125 0.5525 2.4675 0 2 C0 1.34 0 0.68 0 0 Z " fill="#167EAF" transform="translate(221,90)"/>
<path d="M0 0 C1.24153433 3.724603 0.47452539 4.47752269 -1 8 C-1.12375 9.010625 -1.2475 10.02125 -1.375 11.0625 C-2.1206164 14.56689707 -3.43930334 15.60450958 -6 18 C-6 18.99 -6 19.98 -6 21 C-6.97342589 22.02588597 -7.97905242 23.02139587 -9 24 C-10.0839843 25.63945883 -11.1234418 27.30892685 -12.125 29 C-12.64320313 29.86625 -13.16140625 30.7325 -13.6953125 31.625 C-15.11094289 34.0334829 -15.11094289 34.0334829 -16 37 C-16.99 37.495 -16.99 37.495 -18 38 C-17.938125 38.7425 -17.87625 39.485 -17.8125 40.25 C-18.03094296 43.45383006 -18.90250005 44.64031256 -21 47 C-22.32 46.67 -23.64 46.34 -25 46 C-24.59910156 45.319375 -24.19820312 44.63875 -23.78515625 43.9375 C-21.84616616 40.63110421 -19.91905853 37.31799023 -18 34 C-17.64695801 33.38995117 -17.29391602 32.77990234 -16.93017578 32.15136719 C-10.86753753 21.63404345 -5.33736749 10.901857 0 0 Z " fill="#1A7AA3" transform="translate(201,176)"/>
<path d="M0 0 C1.11846313 0.00193359 1.11846313 0.00193359 2.25952148 0.00390625 C8.11415452 0.10545002 13.3090668 1.06661111 18.75 3.3125 C18.75 3.6425 18.75 3.9725 18.75 4.3125 C18.19054687 4.25191406 17.63109375 4.19132813 17.0546875 4.12890625 C9.63102665 3.35312176 2.19651591 2.81680295 -5.25 2.3125 C-5.25 2.9725 -5.25 3.6325 -5.25 4.3125 C-7.89 4.3125 -10.53 4.3125 -13.25 4.3125 C-13.25 4.9725 -13.25 5.6325 -13.25 6.3125 C-14.24 6.8075 -14.24 6.8075 -15.25 7.3125 C-14.92 7.9725 -14.59 8.6325 -14.25 9.3125 C-15.57 9.6425 -16.89 9.9725 -18.25 10.3125 C-18.25 9.6525 -18.25 8.9925 -18.25 8.3125 C-18.971875 8.60125 -19.69375 8.89 -20.4375 9.1875 C-24.34375 10.75 -24.34375 10.75 -28.25 12.3125 C-20.82322663 3.92743329 -11.14649904 -0.0797692 0 0 Z " fill="#1F79A9" transform="translate(251.25,124.6875)"/>
<path d="M0 0 C0.99 0.33 1.98 0.66 3 1 C-8.80002965 9.05048751 -17.47357798 12.38130032 -32 11 C-38.22428641 9.54989743 -42.65024645 7.75973032 -47 3 C-43.41527746 3.60703858 -40.39443709 4.63012643 -37.0625 6.0625 C-28.13479187 9.36370382 -18.6639144 9.21884331 -9.76953125 5.8515625 C-7.73083962 4.92096785 -7.73083962 4.92096785 -5 3 C-4.01 3 -3.02 3 -2 3 C-2 2.34 -2 1.68 -2 1 C-1.34 0.67 -0.68 0.34 0 0 Z " fill="#6AADAF" transform="translate(85,92)"/>
<path d="M0 0 C1 2 2 4 3 6 C3.33 5.01 3.66 4.02 4 3 C4.99 2.67 5.98 2.34 7 2 C7.66 1.34 8.32 0.68 9 0 C9.66 0.66 10.32 1.32 11 2 C10.625 4.625 10.625 4.625 10 7 C8.35 7.33 6.7 7.66 5 8 C5 8.99 5 9.98 5 11 C4.01 11 3.02 11 2 11 C1.67 10.34 1.34 9.68 1 9 C-2.67024761 10.22341587 -3.3606842 11.83514059 -5.1484375 15.14453125 C-6.18118719 17.39478859 -6.70252005 19.54579041 -7 22 C-7.99 22.33 -8.98 22.66 -10 23 C-7.60292686 14.82175048 -3.91141228 7.53348722 0 0 Z " fill="#0F83C2" transform="translate(214,149)"/>
<path d="M0 0 C0 0.33 0 0.66 0 1 C-2.64 1.33 -5.28 1.66 -8 2 C-8 2.66 -8 3.32 -8 4 C-10.31 4 -12.62 4 -15 4 C-14.01 5.98 -13.02 7.96 -12 10 C-19.16268685 11.58341804 -23.44861414 10.10673076 -30 7.0625 C-30.87011719 6.67642578 -31.74023438 6.29035156 -32.63671875 5.89257812 C-34.76596095 4.94494836 -36.88587673 3.98078213 -39 3 C-34.37411598 1.70797196 -31.59980309 2.69672246 -27 4 C-27 4.99 -27 5.98 -27 7 C-26.113125 7.12375 -25.22625 7.2475 -24.3125 7.375 C-21.29612498 7.94412736 -18.79673946 8.76614436 -16 10 C-16 9.34 -16 8.68 -16 8 C-16.99 7.67 -17.98 7.34 -19 7 C-19.33 6.01 -19.66 5.02 -20 4 C-18.68 4.33 -17.36 4.66 -16 5 C-15.67 4.01 -15.34 3.02 -15 2 C-10.06208162 -0.34551123 -5.33555495 -0.2134222 0 0 Z " fill="#1183C0" transform="translate(128,270)"/>
<path d="M0 0 C3.85645478 1.13940709 7.06505829 2.17794066 10 5 C10 5.99 10 6.98 10 8 C10.66 8 11.32 8 12 8 C12.33 9.32 12.66 10.64 13 12 C10.765625 12.70703125 10.765625 12.70703125 8 13 C5.796875 11.63671875 5.796875 11.63671875 3.75 9.6875 C2.72132813 8.73423828 2.72132813 8.73423828 1.671875 7.76171875 C0 6 0 6 -1 4 C-1.99 4.33 -2.98 4.66 -4 5 C-4.33 4.01 -4.66 3.02 -5 2 C-2 2 -2 2 1 3 C0.67 2.01 0.34 1.02 0 0 Z " fill="#1284C3" transform="translate(270,129)"/>
<path d="M0 0 C0.33 0.66 0.66 1.32 1 2 C0.67 2.99 0.34 3.98 0 5 C-0.66 5 -1.32 5 -2 5 C-1.938125 6.485 -1.938125 6.485 -1.875 8 C-1.85725089 10.95818446 -2.22447375 12.79226029 -3.0625 15.75 C-5.13203519 23.32361815 -3.28206334 31.6466848 -1 39 C-0.01612294 40.67623498 0.97862543 42.34634594 2 44 C1.67 44.66 1.34 45.32 1 46 C-4.96698631 37.76886078 -8.2751337 28.23553264 -7 18 C-5.69514767 11.32445115 -3.68237169 5.71402503 0 0 Z " fill="#1F7BA5" transform="translate(217,42)"/>
<path d="M0 0 C8.73409267 0.45968909 15.38066225 5.99900155 21.0625 12.1875 C23.4217221 14.88671544 24.86347791 16.59043374 26 20 C25.01 20 24.02 20 23 20 C23 20.66 23 21.32 23 22 C22.01 21.67 21.02 21.34 20 21 C20.33 19.68 20.66 18.36 21 17 C20.01 16.67 19.02 16.34 18 16 C17.67 16.99 17.34 17.98 17 19 C16.01 19 15.02 19 14 19 C14 17.02 14 15.04 14 13 C14.66 13 15.32 13 16 13 C16 11.68 16 10.36 16 9 C15.46890625 8.73445313 14.9378125 8.46890625 14.390625 8.1953125 C9.59375 5.796875 4.796875 3.3984375 0 1 C0 0.67 0 0.34 0 0 Z " fill="#0583BB" transform="translate(258,27)"/>
<path d="M0 0 C1.02874604 2.74332278 0.94445236 4.36800308 0.5 7.3125 C-0.84382966 16.84473172 -0.32252706 25.9303622 5 34 C5.125 37.25 5.125 37.25 5 40 C5.66 40.99 6.32 41.98 7 43 C7.125 45.6875 7.125 45.6875 7 48 C4.98248342 44.97372513 3.80285762 42.20072423 2.5 38.8125 C2.0771875 37.72582031 1.654375 36.63914063 1.21875 35.51953125 C-1.13983805 28.70835231 -2.32836801 22.65388747 -2.25 15.4375 C-2.25773438 14.72142578 -2.26546875 14.00535156 -2.2734375 13.26757812 C-2.25605013 8.49039765 -1.50193233 4.53559722 0 0 Z " fill="#68AFB3" transform="translate(15,154)"/>
<path d="M0 0 C1.17114799 3.51344396 0.43824017 5.25659494 -0.515625 8.73046875 C-1.30931437 12.44928749 -1.35587025 16.21784414 -1 20 C-0.67 20.33 -0.34 20.66 0 21 C0.1315033 22.41439104 0.23032462 23.83188775 0.3125 25.25 C0.74174727 29.60478283 1.84693263 31.84693263 5 35 C7 37 7 37 8.4375 39.4375 C9.80163937 41.67468856 11.07324346 43.25674408 13 45 C11.515 45.495 11.515 45.495 10 46 C0.62781461 35.86435007 -3.44893576 27.25458583 -3.26953125 13.27734375 C-2.8841639 8.5915002 -1.6614777 4.38115845 0 0 Z " fill="#66B1AF" transform="translate(25,48)"/>
<path d="M0 0 C4.07952215 0.67864948 7.71420337 1.93474686 11.5625 3.4375 C12.67753906 3.86933594 13.79257813 4.30117188 14.94140625 4.74609375 C17.3642777 5.73937821 19.68458726 6.78285149 22 8 C17.25 9.125 17.25 9.125 15 8 C15 8.99 15 9.98 15 11 C15.99 11 16.98 11 18 11 C17.67 11.99 17.34 12.98 17 14 C14.91297017 12.58854052 12.83044062 11.17111469 10.75 9.75 C10.16347656 9.35425781 9.57695313 8.95851563 8.97265625 8.55078125 C5.66326437 6.28254636 2.6921877 4.01205159 0 1 C0 0.67 0 0.34 0 0 Z " fill="#1D7CA0" transform="translate(60,252)"/>
<path d="M0 0 C1.41377341 2.63904371 2.37240135 5.07120629 3 8 C4.32 8.33 5.64 8.66 7 9 C6.67 9.66 6.34 10.32 6 11 C6.66 11 7.32 11 8 11 C8 11.66 8 12.32 8 13 C10.45116281 14.27460466 12.84771925 15.32367462 15.4375 16.3125 C19.16117488 18.076346 21.23330201 19.99615647 24 23 C24.66 23.33 25.32 23.66 26 24 C26 24.66 26 25.32 26 26 C14.14065231 22.61412115 5.71627908 13.13320643 -2 4 C-1.34 2.68 -0.68 1.36 0 0 Z " fill="#62B2B2" transform="translate(35,219)"/>
<path d="M0 0 C1.66666667 1.66666667 3.33333333 3.33333333 5 5 C5.928125 5.886875 6.85625 6.77375 7.8125 7.6875 C10 10 10 10 10 12 C10.66 12 11.32 12 12 12 C12.33 13.32 12.66 14.64 13 16 C11.02 16.99 11.02 16.99 9 18 C9 17.01 9 16.02 9 15 C8.360625 14.855625 7.72125 14.71125 7.0625 14.5625 C5 14 5 14 4 13 C3.34 12.67 2.68 12.34 2 12 C2 11.34 2 10.68 2 10 C1.34 9.67 0.68 9.34 0 9 C0.33 8.34 0.66 7.68 1 7 C0.71758117 4.6599583 0.38749213 2.32495277 0 0 Z " fill="#57B1B3" transform="translate(137,227)"/>
<path d="M0 0 C-6.33452623 3.92740626 -11.30517793 5.1381442 -18.8359375 5.09765625 C-19.89941406 5.09443359 -20.96289062 5.09121094 -22.05859375 5.08789062 C-23.15300781 5.07951172 -24.24742188 5.07113281 -25.375 5.0625 C-26.49261719 5.05798828 -27.61023438 5.05347656 -28.76171875 5.04882812 C-31.50786804 5.03709244 -34.25390586 5.02067363 -37 5 C-37 4.34 -37 3.68 -37 3 C-36.36610352 2.98541748 -35.73220703 2.97083496 -35.07910156 2.95581055 C-19.33666448 2.71902347 -19.33666448 2.71902347 -4.01171875 -0.4765625 C-2 -1 -2 -1 0 0 Z " fill="#2D7FA5" transform="translate(133,260)"/>
<path d="M0 0 C3.63 0.66 7.26 1.32 11 2 C10.67 3.32 10.34 4.64 10 6 C14.62 5.67 19.24 5.34 24 5 C24 4.34 24 3.68 24 3 C28.29 2.34 32.58 1.68 37 1 C29.96702286 8.03297714 17.31989636 7.74535802 8 8 C8.33 6.68 8.66 5.36 9 4 C8.0925 4.04125 7.185 4.0825 6.25 4.125 C3.1217954 4.00468444 1.61385994 3.6085292 -1 2 C-0.67 1.34 -0.34 0.68 0 0 Z " fill="#0C82BD" transform="translate(172,276)"/>
<path d="M0 0 C0.99 0.33 1.98 0.66 3 1 C1.47050112 4.00635032 -0.0758263 7.00374714 -1.625 10 C-2.05167969 10.83917969 -2.47835938 11.67835938 -2.91796875 12.54296875 C-5.81365872 18.11825242 -9.06505991 23.10227361 -13 28 C-13.33 27.01 -13.66 26.02 -14 25 C-12.55859375 22.28515625 -12.55859375 22.28515625 -10.4375 19.0625 C-6.48117179 12.92267705 -3.13949739 6.60007973 0 0 Z " fill="#1D78A3" transform="translate(286,200)"/>
<path d="M0 0 C0.66 0 1.32 0 2 0 C2.45375 0.639375 2.9075 1.27875 3.375 1.9375 C5.25236799 4.32031322 6.12558367 4.4381285 9 5 C7.46620188 6.44589269 5.92256145 7.88134804 4.375 9.3125 C3.51648438 10.11300781 2.65796875 10.91351563 1.7734375 11.73828125 C-1.02200966 14.01794872 -3.72420916 15.51580738 -7 17 C-5.76210371 13.28631113 -4.14775123 12.22645819 -1 10 C-0.34 10 0.32 10 1 10 C1 9.34 1 8.68 1 8 C0.34 8 -0.32 8 -1 8 C-2.04549908 4.86350275 -2.00170317 4.0051095 -1 1 C-0.67 0.67 -0.34 0.34 0 0 Z M2 6 C1.67 6.66 1.34 7.32 1 8 C1.66 8 2.32 8 3 8 C2.67 7.34 2.34 6.68 2 6 Z " fill="#1780B8" transform="translate(243,246)"/>
<path d="M0 0 C0.66 1.32 1.32 2.64 2 4 C0.8553125 4.12375 0.8553125 4.12375 -0.3125 4.25 C-3.57620042 5.16080012 -4.13095126 6.28138365 -6 9 C-6.99 9.33 -7.98 9.66 -9 10 C-9 10.66 -9 11.32 -9 12 C-8.34 12.33 -7.68 12.66 -7 13 C-9.31 13 -11.62 13 -14 13 C-14.33 11.68 -14.66 10.36 -15 9 C-10.06584484 5.87289907 -5.0916072 2.86402905 0 0 Z " fill="#1781B2" transform="translate(147,251)"/>
<path d="M0 0 C0.99 0.33 1.98 0.66 3 1 C-16.37692873 12.25202057 -16.37692873 12.25202057 -21 14 C-21.66 13.67 -22.32 13.34 -23 13 C-22.51789063 12.68546875 -22.03578125 12.3709375 -21.5390625 12.046875 C-20.90742188 11.61890625 -20.27578125 11.1909375 -19.625 10.75 C-18.68527344 10.12351562 -18.68527344 10.12351562 -17.7265625 9.484375 C-15.85923197 8.09194922 -15.85923197 8.09194922 -15.04296875 5.86328125 C-14.52669922 4.94095703 -14.52669922 4.94095703 -14 4 C-12.01171875 3.49609375 -12.01171875 3.49609375 -9.6875 3.4375 C-5.64661415 3.18453925 -3.42489928 2.2161113 0 0 Z " fill="#207DAC" transform="translate(233,263)"/>
<path d="M0 0 C0.66 0.66 1.32 1.32 2 2 C2.99 2 3.98 2 5 2 C4.6875 3.9375 4.6875 3.9375 4 6 C3.01 6.33 2.02 6.66 1 7 C0.67 7.99 0.34 8.98 0 10 C1.65 10.33 3.3 10.66 5 11 C5 11.33 5 11.66 5 12 C3.02 12 1.04 12 -1 12 C-1 11.34 -1 10.68 -1 10 C-1.99 9.67 -2.98 9.34 -4 9 C-4.25 6.1875 -4.25 6.1875 -4 3 C-2 1.125 -2 1.125 0 0 Z " fill="#117EC2" transform="translate(156,244)"/>
<path d="M0 0 C-2.80356754 1.86904502 -5.16748887 2.91846414 -8.3125 4.0625 C-9.23675781 4.40410156 -10.16101563 4.74570313 -11.11328125 5.09765625 C-17.39073825 7.05989247 -23.3633855 7.12624321 -29.875 7.0625 C-30.75414063 7.05798828 -31.63328125 7.05347656 -32.5390625 7.04882812 C-34.69273803 7.03712337 -36.84637817 7.01919069 -39 7 C-39 6.67 -39 6.34 -39 6 C-37.17662109 5.90912109 -37.17662109 5.90912109 -35.31640625 5.81640625 C-33.73175772 5.73201668 -32.14712298 5.6473679 -30.5625 5.5625 C-29.76005859 5.52318359 -28.95761719 5.48386719 -28.13085938 5.44335938 C-24.24760439 5.5945704 -24.24760439 5.5945704 -21 4 C-17.96974198 3.46178999 -14.92923012 3.03443179 -11.8828125 2.59765625 C-7.25461589 1.63815208 -5.00812128 -0.22258317 0 0 Z " fill="#5BAEB2" transform="translate(137,251)"/>
<path d="M0 0 C0.33 0 0.66 0 1 0 C1.81503092 10.23316604 -0.65122543 19.83728984 -7 28 C-7.33 27.34 -7.66 26.68 -8 26 C-6.84852842 22.69008365 -5.48157524 19.4941185 -4.12890625 16.26171875 C-3.07770997 13.22452534 -2.75618751 11.1695624 -3 8 C-2.01 7.67 -1.02 7.34 0 7 C0 4.69 0 2.38 0 0 Z " fill="#1C7CA7" transform="translate(287,60)"/>
<path d="M0 0 C0.75990234 -0.01611328 1.51980469 -0.03222656 2.30273438 -0.04882812 C7.85342752 -0.05356826 11.96687438 1.11541 17.0625 3.3125 C17.0625 3.6425 17.0625 3.9725 17.0625 4.3125 C12.51111338 4.56535481 12.51111338 4.56535481 10.34375 3.34375 C7.1762185 1.9118522 4.27032848 1.87960158 0.8125 1.6875 C-0.45078125 1.61273437 -1.7140625 1.53796875 -3.015625 1.4609375 C-4.46195313 1.38746094 -4.46195313 1.38746094 -5.9375 1.3125 C-5.9375 1.9725 -5.9375 2.6325 -5.9375 3.3125 C-6.68515625 3.44527344 -7.4328125 3.57804687 -8.203125 3.71484375 C-9.68039063 3.97974609 -9.68039063 3.97974609 -11.1875 4.25 C-12.16203125 4.42402344 -13.1365625 4.59804688 -14.140625 4.77734375 C-16.43471795 5.21629729 -18.68041971 5.71598592 -20.9375 6.3125 C-14.68704448 0.63026771 -8.09293676 -0.03414741 0 0 Z " fill="#71B0B0" transform="translate(60.9375,25.6875)"/>
<path d="M0 0 C3.46829378 4.12162353 6.30156378 8.49221971 9.125 13.0625 C9.56714844 13.76955078 10.00929687 14.47660156 10.46484375 15.20507812 C12.46056776 18.41572174 14.34507979 21.59759307 16 25 C15.01 24.67 14.02 24.34 13 24 C12.7834375 23.0409375 12.7834375 23.0409375 12.5625 22.0625 C12.376875 21.381875 12.19125 20.70125 12 20 C11.41605469 19.76925781 10.83210937 19.53851563 10.23046875 19.30078125 C6.92805985 17.37485802 5.53997053 14.38009456 3.75 11.125 C3.38648437 10.49980469 3.02296875 9.87460938 2.6484375 9.23046875 C0.72429501 5.80896725 0 4.01157054 0 0 Z " fill="#63AEAF" transform="translate(121,202)"/>
<path d="M0 0 C1.19882813 0.00483398 1.19882813 0.00483398 2.421875 0.00976562 C3.246875 0.01814453 4.071875 0.02652344 4.921875 0.03515625 C5.76234375 0.03966797 6.6028125 0.04417969 7.46875 0.04882812 C9.53648901 0.06057664 11.60419124 0.07851103 13.671875 0.09765625 C10.15792064 3.08725662 8.02180099 3.30680905 3.3984375 3.13671875 C-1.85791555 3.06141283 -7.09505189 3.64471638 -12.328125 4.09765625 C-8.29357564 0.78356214 -5.16404315 -0.03688602 0 0 Z " fill="#157BAA" transform="translate(244.328125,25.90234375)"/>
<path d="M0 0 C5.77899573 0.65535003 10.93842944 2.21489722 16.39453125 4.18359375 C20.63646009 5.66782972 24.56162637 6.49667928 29 7 C29 7.66 29 8.32 29 9 C21.73067895 8.62887897 15.62433403 7.1086706 8.875 4.4375 C8.01390625 4.10814453 7.1528125 3.77878906 6.265625 3.43945312 C4.17260802 2.63712995 2.08455577 1.82399979 0 1 C0 0.67 0 0.34 0 0 Z " fill="#62AEB0" transform="translate(67,248)"/>
<path d="M0 0 C2 3.75 2 3.75 2 6 C2.99 6 3.98 6 5 6 C4.67 7.32 4.34 8.64 4 10 C3.34 10 2.68 10 2 10 C1.67 10.99 1.34 11.98 1 13 C-0.32 13 -1.64 13 -3 13 C-2.690625 12.401875 -2.38125 11.80375 -2.0625 11.1875 C-0.89790296 8.91043228 -0.89790296 8.91043228 0 6 C-1.65 6.33 -3.3 6.66 -5 7 C-3.47793991 4.37098712 -2.15634036 2.15634036 0 0 Z " fill="#1283BF" transform="translate(172,227)"/>
<path d="M0 0 C7.58405442 4.01355457 12.3733939 11.95601881 15 20 C14.67 20.99 14.34 21.98 14 23 C13.67 21.35 13.34 19.7 13 18 C12.34 18 11.68 18 11 18 C10.76925781 17.37351563 10.53851563 16.74703125 10.30078125 16.1015625 C8.3765096 10.87772074 8.3765096 10.87772074 4.25 7.4375 C3.5075 7.293125 2.765 7.14875 2 7 C2 5.35 2 3.7 2 2 C1.34 2 0.68 2 0 2 C0 1.34 0 0.68 0 0 Z " fill="#207AA1" transform="translate(280,135)"/>
<path d="M0 0 C4.49715881 3.13462208 6.75643183 6.4202825 9.3125 11.125 C9.67150391 11.75792969 10.03050781 12.39085937 10.40039062 13.04296875 C13 17.70741071 13 17.70741071 13 20 C10 19 10 19 8.1875 15.5 C7.85621094 14.78585938 7.52492188 14.07171875 7.18359375 13.3359375 C5.47988385 9.97350015 3.33828391 6.96082912 1.171875 3.8828125 C0 2 0 2 0 0 Z " fill="#66ABAD" transform="translate(86,137)"/>
<path d="M0 0 C0.33 0 0.66 0 1 0 C0.74564255 5.95196443 0.42970236 8.83086837 -4 13 C-4.87449461 15.33336714 -5.55660874 17.66514247 -6.19140625 20.07421875 C-6.45824219 20.70972656 -6.72507813 21.34523437 -7 22 C-7.99 22.33 -8.98 22.66 -10 23 C-7.60292686 14.82175048 -3.91141228 7.53348722 0 0 Z " fill="#1D7AA1" transform="translate(214,149)"/>
<path d="M0 0 C-0.66 1.32 -1.32 2.64 -2 4 C-2.66 4 -3.32 4 -4 4 C-3.67 5.32 -3.34 6.64 -3 8 C-4.65 7.67 -6.3 7.34 -8 7 C-8 7.66 -8 8.32 -8 9 C-9.98 9.99 -11.96 10.98 -14 12 C-12.56394807 8.61181498 -10.79533421 6.6813402 -8 4.3125 C-7.29875 3.71050781 -6.5975 3.10851563 -5.875 2.48828125 C-3.78952321 0.83293405 -2.68454235 0 0 0 Z " fill="#277BA2" transform="translate(232,30)"/>
<path d="M0 0 C0.99 0.33 1.98 0.66 3 1 C2.67 2.32 2.34 3.64 2 5 C0.68 5.33 -0.64 5.66 -2 6 C-1.773125 6.7425 -1.54625 7.485 -1.3125 8.25 C-1 11 -1 11 -2.4375 13.3125 C-2.953125 13.869375 -3.46875 14.42625 -4 15 C-5.21405922 11.50448721 -4.777272 9.30906703 -3.6875 5.8125 C-3.42324219 4.93207031 -3.15898437 4.05164063 -2.88671875 3.14453125 C-2 1 -2 1 0 0 Z " fill="#0C80B6" transform="translate(205,171)"/>
<path d="M0 0 C1.6254308 0.14095064 3.25034051 0.28792087 4.875 0.4375 C5.77992187 0.51871094 6.68484375 0.59992188 7.6171875 0.68359375 C10 1 10 1 12 2 C12 2.99 12 3.98 12 5 C12.9075 5.103125 13.815 5.20625 14.75 5.3125 C18.01961575 6.00414949 19.53717737 6.82134921 22 9 C16.69981613 8.40644629 12.41863107 6.62627368 7.625 4.4375 C6.88894531 4.10814453 6.15289062 3.77878906 5.39453125 3.43945312 C3.59355443 2.63252195 1.79637819 1.8171174 0 1 C0 0.67 0 0.34 0 0 Z " fill="#2C7FA9" transform="translate(89,272)"/>
<path d="M0 0 C2.16874252 0.50603992 3.99967627 0.99983813 6 2 C4.55746343 5.36591866 2.66735273 7.51047079 0 10 C0 9.01 0 8.02 0 7 C-0.66 6.67 -1.32 6.34 -2 6 C-2 4.68 -2 3.36 -2 2 C-1.34 2 -0.68 2 0 2 C0 1.34 0 0.68 0 0 Z " fill="#1A83C2" transform="translate(266,226)"/>
<path d="M0 0 C0.66 0 1.32 0 2 0 C2.125 2.375 2.125 2.375 2 5 C1.34 5.66 0.68 6.32 0 7 C-0.165 7.99 -0.33 8.98 -0.5 10 C-1 13 -1 13 -3 15 C-4.40913826 9.36344696 -3.73956036 6.55846884 -0.91015625 1.50390625 C-0.60980469 1.00761719 -0.30945313 0.51132812 0 0 Z " fill="#0284C1" transform="translate(285,62)"/>
<path d="M0 0 C8.95521668 0.47132719 16.22692471 6.61923257 22 13 C21.67 13.66 21.34 14.32 21 15 C20.40574219 14.40832031 19.81148438 13.81664062 19.19921875 13.20703125 C13.26070309 7.54558475 7.67062169 3.90200326 0 1 C0 0.67 0 0.34 0 0 Z " fill="#2E759D" transform="translate(258,27)"/>
<path d="M0 0 C0.99 0.33 1.98 0.66 3 1 C1.58791833 2.60820412 0.17013964 4.21140708 -1.25 5.8125 C-2.03890625 6.70582031 -2.8278125 7.59914062 -3.640625 8.51953125 C-5.65879445 10.64128225 -7.59916705 12.34254423 -10 14 C-10 13.01 -10 12.02 -10 11 C-8.33333333 9.66666667 -6.66666667 8.33333333 -5 7 C-3.19749914 4.73956649 -1.61673842 2.40201137 0 0 Z " fill="#1E769D" transform="translate(263,236)"/>
<path d="M0 0 C2.29648357 2.89585905 4.04347557 5.8172031 5.6875 9.125 C6.12449219 9.99382812 6.56148438 10.86265625 7.01171875 11.7578125 C8 14 8 14 8 16 C7.34 16 6.68 16 6 16 C5.16151196 14.54462432 4.32936066 13.08559627 3.5 11.625 C3.0359375 10.81289062 2.571875 10.00078125 2.09375 9.1640625 C1 7 1 7 1 5 C0.34 4.67 -0.32 4.34 -1 4 C-0.67 2.68 -0.34 1.36 0 0 Z " fill="#5FADAE" transform="translate(99,158)"/>
<path d="M0 0 C3.55780196 0.60990891 6.6828589 1.5783681 10 3 C9.01 3.495 9.01 3.495 8 4 C8.66 5.32 9.32 6.64 10 8 C5.56983933 6.60766379 3.08449737 4.43701135 0 1 C0 0.67 0 0.34 0 0 Z " fill="#398499" transform="translate(60,252)"/>
<path d="M0 0 C0.66 0.33 1.32 0.66 2 1 C-7.00240385 10.25961538 -7.00240385 10.25961538 -12 11 C-11.67 10.34 -11.34 9.68 -11 9 C-10.34 9 -9.68 9 -9 9 C-9 8.34 -9 7.68 -9 7 C-8.01 7 -7.02 7 -6 7 C-6 6.01 -6 5.02 -6 4 C-3.5625 2.375 -3.5625 2.375 -1 1 C-0.67 0.67 -0.34 0.34 0 0 Z " fill="#1E779E" transform="translate(277,88)"/>
<path d="M0 0 C0.66 0.33 1.32 0.66 2 1 C1.67 1.66 1.34 2.32 1 3 C0.96962979 5.56845219 1.06688815 8.120762 1.16015625 10.6875 C1 13 1 13 -1 15 C-2 14 -2 14 -2.125 11.0625 C-2 8 -2 8 -1 6 C-1 5.154375 -1 4.30875 -1 3.4375 C-1 1 -1 1 0 0 Z " fill="#1683C1" transform="translate(281,68)"/>
<path d="M0 0 C-2.24732102 0.84124316 -4.49738785 1.67314832 -6.75 2.5 C-7.38421875 2.73847656 -8.0184375 2.97695313 -8.671875 3.22265625 C-12.03286607 4.44801758 -14.36871587 5 -18 5 C-18 4.34 -18 3.68 -18 3 C-16.35 3 -14.7 3 -13 3 C-13 2.34 -13 1.68 -13 1 C-11.39796533 0.63631108 -9.79325797 0.28438048 -8.1875 -0.0625 C-7.29417969 -0.25972656 -6.40085938 -0.45695312 -5.48046875 -0.66015625 C-3 -1 -3 -1 0 0 Z " fill="#2C7DA5" transform="translate(209,278)"/>
<path d="M0 0 C1.231394 2.46278801 1.07159196 4.2795055 1 7 C-0.65 7.33 -2.3 7.66 -4 8 C-4.33 9.32 -4.66 10.64 -5 12 C-5.66 12 -6.32 12 -7 12 C-5.44298069 7.32894208 -2.91552627 3.91294315 0 0 Z " fill="#167BA5" transform="translate(222,137)"/>
<path d="M0 0 C0.33 0.66 0.66 1.32 1 2 C0 5 0 5 -2 6 C-2.33 6.99 -2.66 7.98 -3 9 C-3.66 9 -4.32 9 -5 9 C-5.33 7.35 -5.66 5.7 -6 4 C-4.02 2.68 -2.04 1.36 0 0 Z " fill="#1484C4" transform="translate(191,206)"/>
<path d="M0 0 C0.99 0.66 1.98 1.32 3 2 C2 4 1 6 0 8 C-1.32 7.67 -2.64 7.34 -4 7 C-2.68 4.69 -1.36 2.38 0 0 Z " fill="#1078B0" transform="translate(180,215)"/>
<path d="M0 0 C0.66 0 1.32 0 2 0 C2.73080266 1.97746603 3.39421747 3.98072489 4 6 C3.67 6.66 3.34 7.32 3 8 C1.35 7.67 -0.3 7.34 -2 7 C-1.34 4.69 -0.68 2.38 0 0 Z " fill="#1782C3" transform="translate(283,191)"/>
<path d="M0 0 C0 0.66 0 1.32 0 2 C-0.74765625 2.13277344 -1.4953125 2.26554687 -2.265625 2.40234375 C-3.74289063 2.66724609 -3.74289063 2.66724609 -5.25 2.9375 C-6.22453125 3.11152344 -7.1990625 3.28554688 -8.203125 3.46484375 C-10.49721795 3.90379729 -12.74291971 4.40348592 -15 5 C-9.79981505 0.64308829 -6.77267164 -0.12778626 0 0 Z " fill="#65AEB3" transform="translate(55,27)"/>
<path d="M0 0 C4.43601966 3.51822249 5.52033129 7.75390186 7 13 C6.01 13 5.02 13 4 13 C4 11.02 4 9.04 4 7 C3.34 7 2.68 7 2 7 C1.34 4.69 0.68 2.38 0 0 Z " fill="#68B0B2" transform="translate(91,41)"/>
<path d="M0 0 C3.14703761 1.57351881 3.7416747 4.30201662 5.1875 7.4375 C5.73792969 8.61183594 6.28835937 9.78617188 6.85546875 10.99609375 C7.23316406 11.98738281 7.61085938 12.97867188 8 14 C7.67 14.66 7.34 15.32 7 16 C4.06719206 13.52097896 3.06128178 11.030738 1.8125 7.4375 C1.46832031 6.46683594 1.12414062 5.49617187 0.76953125 4.49609375 C0 2 0 2 0 0 Z " fill="#67A6A9" transform="translate(107,175)"/>
<path d="M0 0 C0 0.66 0 1.32 0 2 C-3.18824568 3.59412284 -6.62896662 3.10174735 -10.125 3.0625 C-10.87910156 3.05798828 -11.63320313 3.05347656 -12.41015625 3.04882812 C-14.27347127 3.03703499 -16.13674555 3.01909942 -18 3 C-18 2.67 -18 2.34 -18 2 C-17.16855469 1.93941406 -16.33710937 1.87882812 -15.48046875 1.81640625 C-13.85044922 1.69072266 -13.85044922 1.69072266 -12.1875 1.5625 C-11.10855469 1.48128906 -10.02960937 1.40007812 -8.91796875 1.31640625 C-5.75810561 0.97377049 -3.1932719 0 0 0 Z " fill="#5BB1B2" transform="translate(74,99)"/>
<path d="M0 0 C0.66 0.66 1.32 1.32 2 2 C2.99 2 3.98 2 5 2 C5 2.99 5 3.98 5 5 C2.69 5.33 0.38 5.66 -2 6 C-2 2 -2 2 0 0 Z " fill="#1D80B7" transform="translate(156,244)"/>
<path d="M0 0 C1.32 0.33 2.64 0.66 4 1 C3.52797514 5.24822374 1.03344482 7.19989709 -2 10 C-1.67 8.35 -1.34 6.7 -1 5 C-0.34 5 0.32 5 1 5 C0.67 3.35 0.34 1.7 0 0 Z " fill="#60B0B1" transform="translate(91,80)"/>
<path d="M0 0 C0.66 1.32 1.32 2.64 2 4 C1.01 5.485 1.01 5.485 0 7 C-2.625 7.1875 -2.625 7.1875 -5 7 C-3.47793991 4.37098712 -2.15634036 2.15634036 0 0 Z " fill="#157FAF" transform="translate(172,227)"/>
<path d="M0 0 C3.16717283 1.58358642 4.73268318 2.45263699 6.3125 5.6875 C6.539375 6.450625 6.76625 7.21375 7 8 C6.01 8 5.02 8 4 8 C3.34 7.34 2.68 6.68 2 6 C2 4.68 2 3.36 2 2 C1.34 2 0.68 2 0 2 C0 1.34 0 0.68 0 0 Z " fill="#1175A8" transform="translate(280,135)"/>
<path d="M0 0 C5.61 0.33 11.22 0.66 17 1 C17 1.33 17 1.66 17 2 C9.08 2.495 9.08 2.495 1 3 C0.67 2.01 0.34 1.02 0 0 Z " fill="#45B4B6" transform="translate(96,255)"/>
<path d="M0 0 C1.23593891 3.70781672 0.5678132 4.67510253 -0.9375 8.1875 C-1.31777344 9.08855469 -1.69804687 9.98960937 -2.08984375 10.91796875 C-2.54037109 11.94857422 -2.54037109 11.94857422 -3 13 C-4.32757546 9.01727361 -3.3296542 6.9189808 -2 3 C-1.34 2.01 -0.68 1.02 0 0 Z " fill="#1C7B9F" transform="translate(293,185)"/>
<path d="M0 0 C0.66 0.99 1.32 1.98 2 3 C1.01 4.485 1.01 4.485 0 6 C-0.66 6 -1.32 6 -2 6 C-2 6.66 -2 7.32 -2 8 C-3.32 8.33 -4.64 8.66 -6 9 C-4.68 6.69 -3.36 4.38 -2 2 C-1.34 2 -0.68 2 0 2 C0 1.34 0 0.68 0 0 Z " fill="#1784BF" transform="translate(238,129)"/>
<path d="M0 0 C2.475 0.495 2.475 0.495 5 1 C5 1.66 5 2.32 5 3 C5.66 3.33 6.32 3.66 7 4 C5.1875 4.625 5.1875 4.625 3 5 C2.01 4.34 1.02 3.68 0 3 C0 2.01 0 1.02 0 0 Z " fill="#1B82C0" transform="translate(275,137)"/>
<path d="M0 0 C0 0.99 0 1.98 0 3 C-1.26418246 3.69965443 -2.53665402 4.38434763 -3.8125 5.0625 C-4.52019531 5.44535156 -5.22789063 5.82820312 -5.95703125 6.22265625 C-8 7 -8 7 -11 6 C-9.54550599 4.9944239 -8.08627557 3.99569565 -6.625 3 C-5.40683594 2.1646875 -5.40683594 2.1646875 -4.1640625 1.3125 C-2 0 -2 0 0 0 Z " fill="#6CA9AA" transform="translate(39,129)"/>
<path d="M0 0 C0.33 0.99 0.66 1.98 1 3 C-1.64 5.31 -4.28 7.62 -7 10 C-7.66 9.67 -8.32 9.34 -9 9 C-6.03 6.03 -3.06 3.06 0 0 Z " fill="#257AA2" transform="translate(166,234)"/>
<path d="M0 0 C2.5999298 2.51027705 4.99091227 4.9863684 7 8 C7 8.66 7 9.32 7 10 C6.01 9.67 5.02 9.34 4 9 C3.66666667 7.66666667 3.33333333 6.33333333 3 5 C2.01 4.67 1.02 4.34 0 4 C0 2.68 0 1.36 0 0 Z " fill="#67A7A8" transform="translate(130,217)"/>
<path d="M0 0 C0.99 0.99 1.98 1.98 3 3 C2.67 3.99 2.34 4.98 2 6 C0.35 6.33 -1.3 6.66 -3 7 C-1.125 1.125 -1.125 1.125 0 0 Z " fill="#0B7EB7" transform="translate(210,161)"/>
<path d="M0 0 C4.43090471 1.20842856 6.98112756 2.51668565 10 6 C2.36923077 4.52307692 2.36923077 4.52307692 0.5 1.875 C0.335 1.25625 0.17 0.6375 0 0 Z " fill="#1D79A1" transform="translate(270,129)"/>
<path d="M0 0 C2.88437779 1.29299694 4.87219421 2.65941363 7 5 C5.1875 5.6875 5.1875 5.6875 3 6 C1.25 4.75 1.25 4.75 0 3 C0 2.01 0 1.02 0 0 Z " fill="#1782BC" transform="translate(267,32)"/>
<path d="M0 0 C1.670625 0.061875 1.670625 0.061875 3.375 0.125 C3.375 0.785 3.375 1.445 3.375 2.125 C1.725 1.795 0.075 1.465 -1.625 1.125 C-1.625 1.785 -1.625 2.445 -1.625 3.125 C-3.605 4.115 -5.585 5.105 -7.625 6.125 C-4.84462617 0.16705607 -4.84462617 0.16705607 0 0 Z " fill="#167BAC" transform="translate(225.625,35.875)"/>
<path d="M0 0 C2.475 0.495 2.475 0.495 5 1 C5 1.66 5 2.32 5 3 C5.66 3 6.32 3 7 3 C7.33 4.32 7.66 5.64 8 7 C7.01 6.67 6.02 6.34 5 6 C5 5.34 5 4.68 5 4 C4.360625 3.71125 3.72125 3.4225 3.0625 3.125 C1 2 1 2 0 0 Z " fill="#0083BD" transform="translate(275,134)"/>
<path d="M0 0 C3.33727786 1.17255709 5.77437487 2.18868404 8 5 C8 5.66 8 6.32 8 7 C5.05043472 5.63055898 2.47531189 4.12169591 0 2 C0 1.34 0 0.68 0 0 Z " fill="#21779C" transform="translate(221,90)"/>
<path d="M0 0 C0.33 0.66 0.66 1.32 1 2 C0.22265625 3.7265625 0.22265625 3.7265625 -0.9375 5.625 C-1.618125 6.73875 -2.29875 7.8525 -3 9 C-3.66 9 -4.32 9 -5 9 C-3.90931332 5.22454612 -3.0916909 2.52956528 0 0 Z " fill="#68AAAA" transform="translate(31,39)"/>
<path d="M0 0 C0.99 0.33 1.98 0.66 3 1 C0.36 2.98 -2.28 4.96 -5 7 C-5 6.01 -5 5.02 -5 4 C-2.6875 1.75 -2.6875 1.75 0 0 Z " fill="#2B769A" transform="translate(242,256)"/>
<path d="M0 0 C2.475 0.495 2.475 0.495 5 1 C5.33 1.99 5.66 2.98 6 4 C4.35 4.33 2.7 4.66 1 5 C0.67 3.35 0.34 1.7 0 0 Z " fill="#1384B2" transform="translate(68,256)"/>
<path d="M0 0 C-0.33 2.31 -0.66 4.62 -1 7 C-1.66 7 -2.32 7 -3 7 C-3.33 5.35 -3.66 3.7 -4 2 C-1 0 -1 0 0 0 Z " fill="#0B88B7" transform="translate(152,248)"/>
<path d="M0 0 C1.32 1.32 2.64 2.64 4 4 C3.01 4.33 2.02 4.66 1 5 C1 5.66 1 6.32 1 7 C0.01 6.67 -0.98 6.34 -2 6 C-1.34 4.02 -0.68 2.04 0 0 Z " fill="#237DAA" transform="translate(280,42)"/>
<path d="M0 0 C4.29 0 8.58 0 13 0 C13 0.99 13 1.98 13 3 C8.71 2.34 4.42 1.68 0 1 C0 0.67 0 0.34 0 0 Z " fill="#57B5B5" transform="translate(56,27)"/>
<path d="M0 0 C-6 4 -6 4 -10 4 C-7.75282684 -0.49434631 -4.47478037 -0.19887913 0 0 Z " fill="#5EA8AF" transform="translate(137,251)"/>
<path d="M0 0 C-2.64 1.65 -5.28 3.3 -8 5 C-8 4.01 -8 3.02 -8 2 C-3.71900826 -1.23966942 -3.71900826 -1.23966942 0 0 Z " fill="#61AAB1" transform="translate(146,246)"/>
<path d="M0 0 C0 3 0 3 -2.5 5.6875 C-3.325 6.450625 -4.15 7.21375 -5 8 C-4.64950425 4.75791433 -4.43778819 3.38472296 -1.9375 1.1875 C-1.298125 0.795625 -0.65875 0.40375 0 0 Z " fill="#1C79A0" transform="translate(271,228)"/>
<path d="M0 0 C0.33 0.99 0.66 1.98 1 3 C1.99 3.33 2.98 3.66 4 4 C4 4.99 4 5.98 4 7 C3.01 7 2.02 7 1 7 C1 6.34 1 5.68 1 5 C0.34 4.67 -0.32 4.34 -1 4 C-0.67 2.68 -0.34 1.36 0 0 Z " fill="#1A82C1" transform="translate(183,217)"/>
<path d="M0 0 C0.33 0 0.66 0 1 0 C0.67 2.31 0.34 4.62 0 7 C-0.99 6.34 -1.98 5.68 -3 5 C-2.67 3.68 -2.34 2.36 -2 1 C-1.34 1.33 -0.68 1.66 0 2 C0 1.34 0 0.68 0 0 Z " fill="#1783C3" transform="translate(281,47)"/>
<path d="M0 0 C-5.41538462 4.06153846 -5.41538462 4.06153846 -8.375 3.75 C-8.91125 3.5025 -9.4475 3.255 -10 3 C-3.375 -1.125 -3.375 -1.125 0 0 Z " fill="#1370A5" transform="translate(236,264)"/>
</svg>
